<?xml version="1.0" standalone="no"?>
<!DOCTYPE svg PUBLIC "-//W3C//DTD SVG 20010904//EN"
 "http://www.w3.org/TR/2001/REC-SVG-20010904/DTD/svg10.dtd">
<svg version="1.0" xmlns="http://www.w3.org/2000/svg"
 width="640.000000pt" height="640.000000pt" viewBox="0 0 640.000000 640.000000"
 preserveAspectRatio="xMidYMid meet">
<metadata>
Created by potrace 1.11, written by Peter Selinger 2001-2013
</metadata>
<g transform="translate(0.000000,640.000000) scale(0.100000,-0.100000)"
fill="#000000" stroke="none">
<path d="M4522 5130 c-457 -70 -749 -307 -818 -666 -21 -115 -19 -323 6 -420
24 -94 97 -245 153 -317 166 -216 440 -408 921 -649 378 -189 539 -289 662
-412 95 -95 124 -156 124 -260 0 -53 -5 -70 -31 -109 -98 -149 -471 -266 -845
-267 -235 0 -393 51 -530 172 -79 70 -168 165 -233 248 -57 73 -124 128 -167
136 -56 10 -121 -1 -164 -30 -201 -133 6 -480 405 -679 204 -101 382 -145 625
-154 450 -16 847 66 1087 224 143 94 228 218 258 376 71 374 -122 592 -830
936 -543 264 -798 466 -914 723 -121 266 -104 515 46 678 64 69 133 110 253
151 87 30 108 33 252 37 146 4 162 3 247 -22 121 -34 222 -87 287 -147 56 -54
99 -128 159 -274 66 -159 104 -189 235 -183 70 3 82 6 116 34 48 38 84 105 84
155 0 109 -83 255 -220 389 -191 187 -430 309 -665 340 -116 15 -367 10 -503
-10z"/>
<path d="M1952 5111 c-77 -29 -126 -60 -214 -135 -180 -153 -350 -396 -535
-761 -201 -397 -379 -833 -484 -1185 -29 -96 -53 -176 -54 -178 -1 -1 -46 9
-100 23 -113 29 -169 31 -226 8 -36 -14 -45 -25 -75 -87 -19 -39 -34 -82 -34
-96 0 -38 55 -125 92 -148 40 -24 121 -42 188 -42 29 0 50 -5 50 -11 0 -6 -9
-45 -20 -87 -25 -102 -76 -341 -100 -472 -21 -116 -26 -231 -10 -260 24 -45
189 -110 280 -110 63 0 90 11 140 56 69 62 72 75 81 302 5 112 13 249 19 305
11 103 37 267 43 273 2 2 120 13 263 24 437 34 649 63 1014 137 124 25 237 48
251 50 l26 5 6 -144 c13 -286 10 -355 -23 -469 -52 -181 -40 -254 54 -318 64
-45 118 -61 198 -61 110 0 164 34 210 135 20 44 23 65 22 170 0 66 -6 176 -13
245 -43 431 -57 552 -102 885 -93 689 -183 1151 -284 1452 -78 233 -213 410
-365 481 -76 36 -220 42 -298 13z m191 -371 c14 -11 37 -50 51 -87 50 -128
132 -490 191 -843 21 -124 115 -762 115 -781 0 -11 -25 -21 -92 -37 -385 -93
-972 -169 -1234 -160 l-102 3 48 160 c223 741 532 1367 815 1651 76 76 130
113 166 114 9 0 28 -9 42 -20z"/>
</g>
</svg>
